<?xml version="1.0" standalone="no"?>
<!DOCTYPE svg PUBLIC "-//W3C//DTD SVG 20010904//EN"
 "http://www.w3.org/TR/2001/REC-SVG-20010904/DTD/svg10.dtd">
<svg version="1.0" xmlns="http://www.w3.org/2000/svg"
 width="400.000000pt" height="400.000000pt" viewBox="0 0 400.000000 400.000000"
 preserveAspectRatio="xMidYMid meet">

<g transform="translate(0.000000,400.000000) scale(0.100000,-0.100000)"
fill="#000000" stroke="none">
<path d="M0 2000 l0 -2000 2000 0 2000 0 0 2000 0 2000 -2000 0 -2000 0 0
-2000z m1428 803 c11 -10 93 -142 182 -293 90 -151 233 -392 318 -534 209
-352 194 -314 146 -384 -22 -31 -87 -124 -143 -205 -99 -142 -104 -148 -134
-145 -37 3 15 -81 -542 870 -201 345 -369 636 -372 647 -3 11 4 28 16 40 20
20 31 21 265 21 218 0 246 -2 264 -17z m1004 5 c9 -7 159 -258 334 -558 174
-300 375 -643 446 -763 132 -226 148 -266 109 -287 -25 -13 -486 -14 -511 0
-10 5 -28 26 -40 47 -12 21 -169 288 -347 593 -179 305 -372 634 -429 731 -57
96 -104 184 -104 194 0 10 7 27 17 37 15 16 36 18 263 18 182 0 250 -3 262
-12z m-1419 -1042 c52 -84 269 -451 286 -484 10 -19 10 -28 -4 -48 -15 -24
-16 -24 -200 -24 -179 0 -184 1 -199 22 -14 19 -16 65 -16 298 0 283 2 301 40
312 31 10 51 -6 93 -76z"/>
</g>
</svg>
